<?xml version="1.0" encoding="UTF-8"?>
<svg width="273px" height="55px" viewBox="0 0 273 55" version="1.1" xmlns="http://www.w3.org/2000/svg" xmlns:xlink="http://www.w3.org/1999/xlink">
    <!-- Generator: Sketch 52.2 (67145) - http://www.bohemiancoding.com/sketch -->
    <title>VAGLogo-Horiz-K</title>
    <desc>Created with Sketch.</desc>
    <defs>
        <polygon id="path-1" points="0.06 0.312 273.028 0.312 273.028 54.941 0.06 54.941"></polygon>
    </defs>
    <g id="Symbols" stroke="none" stroke-width="1" fill="none" fill-rule="evenodd">
        <g id="Navigation" transform="translate(-50.000000, -77.000000)">
            <g id="VAGLogo-Horiz-K" transform="translate(50.000000, 77.000000)">
                <path d="M64.511,13.983 C63.403,11.326 61.102,12.167 61.102,11.194 C61.102,10.796 61.323,10.576 61.722,10.576 C63.093,10.576 64.466,10.752 65.794,10.752 C66.989,10.752 68.667,10.576 69.288,10.576 C69.555,10.576 69.907,10.752 69.907,11.019 C69.954,11.637 68.093,11.681 68.093,13.274 C68.093,13.893 68.315,14.602 68.491,15 L76.235,33.231 C77.21,35.575 77.518,36.594 78.005,36.594 C78.446,36.594 78.581,35.885 78.802,35.355 L86.501,16.371 C86.766,15.709 87.298,14.291 87.122,13.362 C87.122,11.326 84.288,12.167 84.288,11.15 C84.288,10.708 84.511,10.576 84.954,10.576 C85.927,10.576 86.899,10.752 87.874,10.752 C89.999,10.752 90.661,10.576 91.282,10.576 C91.768,10.576 92.032,10.752 92.032,11.15 C92.032,12.123 90.792,11.019 89.556,13.983 L78.538,40.045 C78.052,41.15 77.741,42.612 77.075,42.612 C76.37,42.612 75.837,40.751 75.438,39.823 L64.511,13.983" id="Fill-1" fill="#1A1919"></path>
                <path d="M94.874,18.551 C94.839,15.814 91.839,16.564 91.839,15.738 C91.839,15.401 91.911,15.328 92.214,15.328 C93.598,15.328 94.95,15.478 96.339,15.478 C97.499,15.478 98.661,15.328 99.825,15.328 C100.425,15.328 100.536,15.401 100.536,15.703 C100.536,16.603 97.839,15.738 97.839,18.551 L97.839,38.689 C97.839,41.238 101.175,40.376 101.175,41.501 C101.175,41.765 101.061,41.876 100.425,41.876 C99.561,41.876 97.95,41.727 96.339,41.727 C94.05,41.727 93.262,41.876 92.737,41.876 C92.061,41.876 91.95,41.689 91.95,41.314 C91.95,40.227 94.874,41.463 94.874,37.751 L94.874,18.551" id="Fill-2" fill="#1A1919"></path>
                <path d="M101.964,35.238 C101.811,34.488 101.999,34.078 102.374,34.078 C102.901,34.078 102.901,34.526 103.089,35.314 C103.536,37.039 105.786,40.939 110.964,40.939 C114.526,40.939 118.013,38.953 118.013,35.015 C118.013,27.776 102.786,31.828 102.786,22.04 C102.786,17.276 106.8,14.988 111.112,14.988 C115.651,14.988 116.888,16.339 117.411,16.339 C117.749,16.339 117.825,15.926 118.2,15.926 C118.425,15.926 118.612,16.04 118.651,16.453 L119.214,21.551 C119.249,21.853 119.175,22.113 118.8,22.113 C118.388,22.113 118.124,21.328 118.013,20.988 C116.888,17.766 114.151,16.113 110.848,16.113 C107.888,16.113 104.737,17.54 104.737,20.988 C104.737,28.04 119.964,23.915 119.964,34.265 C119.964,37.414 117.749,42.14 109.237,42.14 C106.464,42.14 103.05,40.751 102.901,40.078 L101.964,35.238" id="Fill-3" fill="#1A1919"></path>
                <path d="M124.839,18.551 C124.8,15.814 121.8,16.564 121.8,15.738 C121.8,15.401 121.874,15.328 122.175,15.328 C123.561,15.328 124.911,15.478 126.3,15.478 C127.464,15.478 128.624,15.328 129.786,15.328 C130.388,15.328 130.499,15.401 130.499,15.703 C130.499,16.603 127.8,15.738 127.8,18.551 L127.8,38.689 C127.8,41.238 131.138,40.376 131.138,41.501 C131.138,41.765 131.026,41.876 130.388,41.876 C129.526,41.876 127.911,41.727 126.3,41.727 C124.013,41.727 123.223,41.876 122.7,41.876 C122.026,41.876 121.911,41.689 121.911,41.314 C121.911,40.227 124.839,41.463 124.839,37.751 L124.839,18.551" id="Fill-4" fill="#1A1919"></path>
                <path d="M144.713,42.14 C153.075,42.14 158.887,36.703 158.887,28.266 C158.887,20.502 152.998,14.988 145.348,14.988 C137.66,14.988 131.585,20.651 131.585,28.453 C131.585,36.363 136.575,42.14 144.713,42.14 Z M144.223,16.228 C151.535,16.228 156.151,22.863 156.151,29.689 C156.151,36.626 151.762,41.015 146.285,41.015 C138.862,41.015 134.325,34.3 134.325,27.363 C134.325,21.439 137.924,16.228 144.223,16.228 Z" id="Fill-5" fill="#1A1919"></path>
                <path d="M161.325,22.714 C161.325,14.915 156.785,17.089 156.785,15.703 C156.785,15.478 157.16,15.328 157.348,15.328 C157.95,15.328 158.512,15.478 159.112,15.478 C159.674,15.478 160.276,15.328 160.838,15.328 C161.248,15.328 161.588,15.926 161.811,16.189 L179.7,36.102 C179.924,36.363 180.075,36.515 180.151,36.515 C180.223,36.515 180.262,36.401 180.262,36.102 L180.262,20.426 C180.262,15.516 176.098,16.939 176.098,15.703 C176.098,15.439 176.285,15.328 176.512,15.328 C177.637,15.328 178.723,15.478 179.924,15.478 C181.2,15.478 182.811,15.328 183.713,15.328 C183.936,15.328 184.088,15.439 184.088,15.665 C184.088,16.641 181.873,15.964 181.873,18.703 L181.873,40.414 C181.873,41.501 181.838,42.026 181.535,42.026 C181.276,42.026 180.901,41.838 180.112,40.977 L163.987,22.828 C163.91,22.752 163.463,22.113 163.2,22.113 C163.049,22.113 162.936,22.228 162.936,22.978 L162.936,38.314 C162.936,41.689 166.237,40.376 166.237,41.39 C166.237,41.578 166.2,41.876 165.825,41.876 C164.924,41.876 163.873,41.727 162.035,41.727 C160.723,41.727 158.776,41.876 158.512,41.876 C158.061,41.876 158.026,41.651 158.026,41.463 C158.026,40.151 161.325,41.8 161.325,36.55 L161.325,22.714" id="Fill-6" fill="#1A1919"></path>
                <path d="M192.133,36.459 C192.133,39.073 191.778,40.133 195.496,40.133 C205.717,40.133 207.223,35.575 207.797,35.575 C208.108,35.575 208.153,36.017 208.153,36.108 C208.153,37.699 207,39.248 205.94,40.4 C204.522,41.991 203.549,41.903 201.602,41.903 C198.239,41.903 194.877,41.639 191.514,41.727 C189.744,41.771 187.885,41.903 186.116,41.903 C185.717,41.903 185.45,41.815 185.45,41.46 C185.541,40.93 185.983,41.018 187.399,40.309 C188.549,39.779 188.637,38.539 188.637,36.459 L188.637,14.027 C188.637,11.725 184.92,12.035 184.92,11.15 C184.92,10.664 185.231,10.576 185.805,10.576 C186.733,10.576 188.108,10.752 190.276,10.752 C192.797,10.752 193.858,10.576 194.524,10.576 C195.098,10.576 195.364,10.664 195.364,11.194 C195.364,12.211 192.133,11.106 192.133,14.956 L192.133,36.459" id="Fill-7" fill="#1A1919"></path>
                <path d="M211.791,18.551 C211.752,15.814 208.752,16.564 208.752,15.738 C208.752,15.401 208.828,15.328 209.127,15.328 C210.516,15.328 211.867,15.478 213.252,15.478 C214.416,15.478 215.578,15.328 216.742,15.328 C217.34,15.328 217.453,15.401 217.453,15.703 C217.453,16.603 214.752,15.738 214.752,18.551 L214.752,38.689 C214.752,41.238 218.09,40.376 218.09,41.501 C218.09,41.765 217.979,41.876 217.34,41.876 C216.479,41.876 214.867,41.727 213.252,41.727 C210.965,41.727 210.18,41.876 209.653,41.876 C208.979,41.876 208.867,41.689 208.867,41.314 C208.867,40.227 211.791,41.463 211.791,37.751 L211.791,18.551" id="Fill-8" fill="#1A1919"></path>
                <path d="M224.916,22.714 C224.916,14.915 220.377,17.089 220.377,15.703 C220.377,15.478 220.752,15.328 220.94,15.328 C221.541,15.328 222.104,15.478 222.703,15.478 C223.266,15.478 223.864,15.328 224.426,15.328 C224.84,15.328 225.176,15.926 225.403,16.189 L243.291,36.102 C243.516,36.363 243.666,36.515 243.739,36.515 C243.815,36.515 243.854,36.401 243.854,36.102 L243.854,20.426 C243.854,15.516 239.69,16.939 239.69,15.703 C239.69,15.439 239.877,15.328 240.104,15.328 C241.229,15.328 242.315,15.478 243.516,15.478 C244.791,15.478 246.403,15.328 247.301,15.328 C247.528,15.328 247.676,15.439 247.676,15.665 C247.676,16.641 245.465,15.964 245.465,18.703 L245.465,40.414 C245.465,41.501 245.426,42.026 245.127,42.026 C244.864,42.026 244.489,41.838 243.703,40.977 L227.578,22.828 C227.502,22.752 227.051,22.113 226.791,22.113 C226.641,22.113 226.528,22.228 226.528,22.978 L226.528,38.314 C226.528,41.689 229.828,40.376 229.828,41.39 C229.828,41.578 229.791,41.876 229.416,41.876 C228.516,41.876 227.465,41.727 225.627,41.727 C224.315,41.727 222.364,41.876 222.104,41.876 C221.653,41.876 221.614,41.651 221.614,41.463 C221.614,40.151 224.916,41.8 224.916,36.55 L224.916,22.714" id="Fill-9" fill="#1A1919"></path>
                <g id="Group-14">
                    <mask id="mask-2" fill="white">
                        <use xlink:href="#path-1"></use>
                    </mask>
                    <g id="Clip-11"></g>
                    <path d="M263.391,20.578 C264.104,19.939 266.051,18.478 266.051,17.54 C266.051,16.339 263.953,16.453 263.953,15.776 C263.953,15.478 264.141,15.328 264.44,15.328 C265.828,15.328 266.426,15.478 268.416,15.478 C270.364,15.478 270.666,15.328 271.864,15.328 C272.09,15.328 272.541,15.363 272.541,15.627 C272.541,16.828 271.676,15.401 267.403,18.891 L258.627,26.689 C258.291,26.988 258.065,27.214 258.065,27.401 C258.065,27.627 258.215,27.814 258.479,28.113 L268.903,39.026 C271.416,41.651 273.028,40.227 273.028,41.39 C273.028,41.689 272.84,41.876 272.578,41.876 C271.828,41.876 271.041,41.727 270.291,41.727 C269.502,41.727 268.752,41.876 267.965,41.876 C267.479,41.876 267.176,41.276 266.84,40.939 L256.266,29.915 C256.041,29.651 255.778,29.54 255.59,29.54 C255.403,29.54 255.252,29.651 255.252,29.915 L255.252,37.751 C255.252,41.914 258.926,40.151 258.926,41.501 C258.926,41.876 258.141,41.876 257.916,41.876 C257.801,41.876 257.127,41.727 254.239,41.727 C252.328,41.727 251.166,41.876 250.565,41.876 C250.153,41.876 249.627,41.838 249.627,41.276 C249.627,40.675 252.291,41.314 252.291,38.126 L252.291,18.926 C252.291,15.814 249.141,16.714 249.141,15.738 C249.141,15.401 249.291,15.328 249.627,15.328 C250.828,15.328 252.028,15.478 253.266,15.478 C254.84,15.478 256.002,15.328 257.127,15.328 C257.315,15.328 257.426,15.439 257.426,15.665 C257.426,16.488 255.252,16.113 255.252,18.776 L255.252,27.214 C255.252,27.439 255.328,27.589 255.44,27.589 C255.551,27.589 255.703,27.551 255.854,27.401 L263.391,20.578" id="Fill-10" fill="#1A1919" mask="url(#mask-2)"></path>
                    <path d="M30.104,2.506 C33.76,2.506 37.318,3.161 40.68,4.452 L40.895,4.003 C36.75,1.588 32.017,0.312 27.207,0.312 C12.205,0.312 0,12.514 0,27.514 C0,29.524 0.222,31.541 0.661,33.505 L1.155,33.429 C1.084,32.642 1.048,31.83 1.048,31.011 C1.048,15.293 14.082,2.506 30.104,2.506" id="Fill-12" fill="#1A1919" mask="url(#mask-2)"></path>
                    <path d="M53.748,21.81 L53.255,21.887 C53.325,22.67 53.361,23.483 53.361,24.303 C53.361,40.021 40.327,52.808 24.305,52.808 C20.662,52.808 17.105,52.156 13.733,50.867 L13.518,51.316 C17.66,53.726 22.393,54.999 27.207,54.999 C42.209,54.999 54.413,42.794 54.413,27.793 C54.413,25.789 54.189,23.776 53.748,21.81" id="Fill-13" fill="#1A1919" mask="url(#mask-2)"></path>
                </g>
                <path d="M20.347,38.285 C20.605,40.087 20.622,41.326 18.68,43.312 L18.41,43.589 C18.116,43.895 17.981,44.035 17.337,44.496 C17.272,44.553 17.192,44.614 17.113,44.673 C16.839,44.88 16.602,45.059 16.557,45.345 L16.503,45.679 L16.794,45.853 C16.941,45.941 17.127,45.978 17.39,45.978 C17.731,45.978 18.201,45.916 18.88,45.82 C19.391,45.748 19.951,45.667 20.495,45.626 C28.408,44.683 38.726,42.641 42.685,40.388 C44.484,39.367 46.415,37.966 46.553,34.208 C46.441,30.997 43.382,28.584 40.142,26.03 C37.348,23.827 34.458,21.548 33.708,18.745 C33.691,18.701 31.997,14.249 35.289,11.51 C36.068,11.099 36.728,10.738 36.557,10.163 C36.393,9.608 35.703,9.581 34.143,9.723 C33.064,9.776 31.546,9.967 30.206,10.135 C27.872,10.432 25.614,10.814 25.592,10.817 C25.407,10.849 21.024,11.595 18.318,12.391 C15.714,13.107 13.399,14.06 13.382,14.068 C13.264,14.115 10.486,15.237 9.216,16.717 C9.153,16.768 8.583,17.253 8.062,18.471 C7.764,18.957 7.564,19.957 7.548,20.043 C7.401,20.632 7.465,21.336 7.468,21.336 C7.468,21.372 7.608,25.029 10.714,27.651 C11.661,28.564 12.774,29.458 13.85,30.324 C16.747,32.656 19.743,35.065 20.347,38.285" id="Fill-15" fill="#1A1919"></path>
            </g>
        </g>
    </g>
</svg>